# xmcd CD database file
#
# Track frame offsets:
#	150
#	17129
#	30625
#	44344
#	59749
#	73204
#	85725
#	98817
#	115420
#	133653
#	148807
#	167876
#
# Disc length: 2410 seconds
#
# Revision: 0
# Processed by: cddbd v1.5.2PL0 Copyright (c) Steve Scherf et al.
# Submitted via: CDex 1.51
#
DISCID=b209680c
DTITLE=Graham Rodger - My Kinda Country
DYEAR=1995
DGENRE=Country
TTITLE0=1. You're the driving force (behind those driving wheels)
TTITLE1=2. My kinda country
TTITLE2=3. Middleton Hotel
TTITLE3=4. Open your heart Australia
TTITLE4=5. I've just about had enough
TTITLE5=6. When this old world was yours and mine
TTITLE6=7. The young Australian ringers
TTITLE7=8. The ones who remain
TTITLE8=9. Burke and Wills
TTITLE9=10. To long at the wheel
TTITLE10=11. The one that got away
TTITLE11=12. Toby
EXTD=YEAR: 1995
EXTT0=
EXTT1=
EXTT2=
EXTT3=
EXTT4=
EXTT5=
EXTT6=
EXTT7=
EXTT8=
EXTT9=
EXTT10=
EXTT11=
PLAYORDER=
